<svg width="32" height="33" viewBox="0 0 32 33" fill="none" xmlns="http://www.w3.org/2000/svg">
<path d="M21.9268 1.66602C26.7452 1.66602 30.666 5.58681 30.666 10.4053V22.2607C30.666 27.0792 26.7452 31 21.9268 31H10.0713C5.25283 31 1.33203 27.0792 1.33203 22.2607V10.4053C1.33203 5.58681 5.25283 1.66602 10.0713 1.66602H21.9268ZM10.0713 4.61719C6.8749 4.61719 4.2832 7.20883 4.2832 10.4053V22.2607C4.2832 25.4571 6.8749 28.0488 10.0713 28.0488H21.9268C25.1231 28.0488 27.7148 25.4571 27.7148 22.2607V10.4053C27.7148 7.20883 25.1231 4.61719 21.9268 4.61719H10.0713ZM16.002 8.74609C20.1851 8.74631 23.5879 12.1499 23.5879 16.333C23.5879 20.5161 20.185 23.9197 16.002 23.9199C11.8187 23.9199 8.41507 20.5162 8.41504 16.333C8.41504 12.1498 11.8187 8.74609 16.002 8.74609ZM16.002 11.6973C13.4418 11.6973 11.3662 13.7728 11.3662 16.333C11.3662 18.8933 13.4417 20.9688 16.002 20.9688C18.562 20.9685 20.6377 18.8931 20.6377 16.333C20.6377 13.7729 18.562 11.6975 16.002 11.6973ZM23.6035 6.98535C24.6075 6.98539 25.4209 7.79973 25.4209 8.80371C25.4207 9.80756 24.6074 10.6211 23.6035 10.6211C22.5996 10.6211 21.7853 9.80758 21.7852 8.80371C21.7852 7.7997 22.5995 6.98535 23.6035 6.98535Z" fill="black"/>
</svg>
